<?xml version="1.0" encoding="utf-8"?>
<!-- Generator: Adobe Illustrator 16.0.0, SVG Export Plug-In . SVG Version: 6.00 Build 0)  -->
<!DOCTYPE svg PUBLIC "-//W3C//DTD SVG 1.1//EN" "http://www.w3.org/Graphics/SVG/1.1/DTD/svg11.dtd">
<svg version="1.1" xmlns="http://www.w3.org/2000/svg" xmlns:xlink="http://www.w3.org/1999/xlink" x="0px" y="0px" width="500px"
	 height="500px" viewBox="0 0 500 500" enable-background="new 0 0 500 500" xml:space="preserve">
<g id="레이어_2">
</g>
<g id="레이어_1">
	<circle fill="#F4E227" cx="252.647" cy="252.177" r="232.353"/>
	<path fill="#3B2828" d="M253.326,118.677c86.271,0,156.207,54.51,156.207,121.768c0,67.241-69.937,121.755-156.207,121.755
		c-8.589,0-17.172-0.55-25.69-1.636l-65.578,42.887c-7.453,3.942-10.088,3.514-7.024-6.143l13.273-54.722
		C125.46,320.868,97.12,283.224,97.12,240.444C97.12,173.201,167.056,118.677,253.326,118.677z M341.206,238.584l21.865-21.186
		c2.688-2.792,2.609-7.238-0.188-9.927c-2.655-2.558-6.832-2.625-9.568-0.158l-28.685,27.761v-22.942
		c0-3.875-3.146-7.021-7.021-7.021c-3.883,0-7.021,3.145-7.021,7.021v38.042c-0.269,1.083-0.269,2.217,0,3.303v21.406
		c0,3.876,3.138,7.021,7.021,7.021c3.875,0,7.021-3.145,7.021-7.021v-20.277l6.356-6.145l21.241,30.245
		c2.227,3.178,6.612,3.942,9.791,1.717c3.171-2.24,3.942-6.618,1.709-9.79l-22.522-32.062V238.584z M297.199,267.205H275.48v-54.849
		c-0.181-3.873-3.467-6.87-7.335-6.692c-3.628,0.168-6.531,3.068-6.692,6.692v61.869c0,3.876,3.125,7.027,7,7.027h28.746
		c3.876,0,7.021-3.151,7.021-7.027C304.22,270.351,301.075,267.205,297.199,267.205z M210.063,250.962l10.357-25.396l9.491,25.396
		H210.063z M247.6,258.221l0.027-0.235c0-1.771-0.678-3.474-1.888-4.764l-15.56-41.653c-1.338-4.066-5.056-6.876-9.33-7.054
		c-4.305-0.017-8.174,2.628-9.713,6.651l-24.712,60.619c-1.465,3.594,0.255,7.697,3.846,9.16c3.59,1.468,7.691-0.255,9.16-3.85
		l4.908-12.09h30.794l4.448,11.902c1.247,3.674,5.238,5.633,8.908,4.386c3.672-1.248,5.637-5.23,4.389-8.905
		c-0.047-0.134-0.094-0.269-0.147-0.389L247.6,258.221z M198.179,212.43c0-3.872-3.135-7.013-7.007-7.02h-48.275
		c-3.879,0-7.024,3.141-7.024,7.02c0,3.879,3.145,7.024,7.024,7.024l0,0h17.256v55.576c0.004,3.876,3.148,7.021,7.027,7.015
		c3.873,0,7.014-3.139,7.017-7.015v-55.576h16.958C195.038,219.454,198.179,216.299,198.179,212.43z"/>
</g>
</svg>
